<svg xmlns="http://www.w3.org/2000/svg" viewBox="0 0 32 24" width="32" height="24" shape-rendering="crispEdges">
  <rect x="0" y="0" width="1" height="1" fill="#ffffff" />
  <rect x="1" y="0" width="1" height="1" fill="#ffffff" />
  <rect x="2" y="0" width="1" height="1" fill="#ffffff" />
  <rect x="3" y="0" width="1" height="1" fill="#ffffff" />
  <rect x="0" y="1" width="1" height="1" fill="#ffffff" />
  <rect x="1" y="1" width="1" height="1" fill="#ffffff" />
  <rect x="2" y="1" width="1" height="1" fill="#ffffff" />
  <rect x="3" y="1" width="1" height="1" fill="#ffffff" />
  <rect x="4" y="1" width="1" height="1" fill="#ffffff" />
  <rect x="0" y="2" width="1" height="1" fill="#ffffff" />
  <rect x="1" y="2" width="1" height="1" fill="#ffffff" />
  <rect x="2" y="2" width="1" height="1" fill="#ffffff" />
  <rect x="3" y="2" width="1" height="1" fill="#ffffff" />
  <rect x="4" y="2" width="1" height="1" fill="#ffffff" />
  <rect x="5" y="2" width="1" height="1" fill="#ffffff" />
  <rect x="6" y="2" width="1" height="1" fill="#ffffff" />
  <rect x="2" y="3" width="1" height="1" fill="#ffffff" />
  <rect x="3" y="3" width="1" height="1" fill="#ffffff" />
  <rect x="4" y="3" width="1" height="1" fill="#ffffff" />
  <rect x="5" y="3" width="1" height="1" fill="#ffffff" />
  <rect x="6" y="3" width="1" height="1" fill="#ffffff" />
  <rect x="2" y="4" width="1" height="1" fill="#ffffff" />
  <rect x="3" y="4" width="1" height="1" fill="#ffffff" />
  <rect x="4" y="4" width="1" height="1" fill="#ffffff" />
  <rect x="5" y="4" width="1" height="1" fill="#ffffff" />
  <rect x="6" y="4" width="1" height="1" fill="#ffffff" />
  <rect x="4" y="5" width="1" height="1" fill="#ffffff" />
  <rect x="5" y="5" width="1" height="1" fill="#ffffff" />
  <rect x="6" y="5" width="1" height="1" fill="#ffffff" />
  <rect x="7" y="5" width="1" height="1" fill="#ffffff" />
  <rect x="8" y="5" width="1" height="1" fill="#ffffff" />
  <rect x="9" y="5" width="1" height="1" fill="#ffffff" />
  <rect x="4" y="6" width="1" height="1" fill="#ffffff" />
  <rect x="5" y="6" width="1" height="1" fill="#ffffff" />
  <rect x="6" y="6" width="1" height="1" fill="#ffffff" />
  <rect x="7" y="6" width="1" height="1" fill="#ffffff" />
  <rect x="8" y="6" width="1" height="1" fill="#ffffff" />
  <rect x="9" y="6" width="1" height="1" fill="#ffffff" />
  <rect x="5" y="7" width="1" height="1" fill="#ffffff" />
  <rect x="6" y="7" width="1" height="1" fill="#ffffff" />
  <rect x="7" y="7" width="1" height="1" fill="#ffffff" />
  <rect x="8" y="7" width="1" height="1" fill="#ffffff" />
  <rect x="9" y="7" width="1" height="1" fill="#ffffff" />
  <rect x="10" y="7" width="1" height="1" fill="#ffffff" />
  <rect x="11" y="7" width="1" height="1" fill="#ffffff" />
  <rect x="7" y="8" width="1" height="1" fill="#ffffff" />
  <rect x="8" y="8" width="1" height="1" fill="#ffffff" />
  <rect x="9" y="8" width="1" height="1" fill="#ffffff" />
  <rect x="10" y="8" width="1" height="1" fill="#ffffff" />
  <rect x="11" y="8" width="1" height="1" fill="#ffffff" />
  <rect x="7" y="9" width="1" height="1" fill="#ffffff" />
  <rect x="8" y="9" width="1" height="1" fill="#ffffff" />
  <rect x="9" y="9" width="1" height="1" fill="#ffffff" />
  <rect x="10" y="9" width="1" height="1" fill="#ffffff" />
  <rect x="11" y="9" width="1" height="1" fill="#ffffff" />
  <rect x="7" y="10" width="1" height="1" fill="#ffffff" />
  <rect x="8" y="10" width="1" height="1" fill="#ffffff" />
  <rect x="9" y="10" width="1" height="1" fill="#ffffff" />
  <rect x="10" y="10" width="1" height="1" fill="#ffffff" />
  <rect x="11" y="10" width="1" height="1" fill="#ffffff" />
  <rect x="12" y="10" width="1" height="1" fill="#ffffff" />
  <rect x="13" y="10" width="1" height="1" fill="#ffffff" />
  <rect x="7" y="11" width="1" height="1" fill="#ffffff" />
  <rect x="8" y="11" width="1" height="1" fill="#ffffff" />
  <rect x="9" y="11" width="1" height="1" fill="#ffffff" />
  <rect x="10" y="11" width="1" height="1" fill="#ffffff" />
  <rect x="11" y="11" width="1" height="1" fill="#ffffff" />
  <rect x="12" y="11" width="1" height="1" fill="#ffffff" />
  <rect x="13" y="11" width="1" height="1" fill="#ffffff" />
  <rect x="7" y="12" width="1" height="1" fill="#ffffff" />
  <rect x="8" y="12" width="1" height="1" fill="#ffffff" />
  <rect x="9" y="12" width="1" height="1" fill="#ffffff" />
  <rect x="10" y="12" width="1" height="1" fill="#ffffff" />
  <rect x="11" y="12" width="1" height="1" fill="#ffffff" />
  <rect x="6" y="13" width="1" height="1" fill="#ffffff" />
  <rect x="7" y="13" width="1" height="1" fill="#ffffff" />
  <rect x="8" y="13" width="1" height="1" fill="#ffffff" />
  <rect x="9" y="13" width="1" height="1" fill="#ffffff" />
  <rect x="10" y="13" width="1" height="1" fill="#ffffff" />
  <rect x="11" y="13" width="1" height="1" fill="#ffffff" />
  <rect x="4" y="14" width="1" height="1" fill="#ffffff" />
  <rect x="5" y="14" width="1" height="1" fill="#ffffff" />
  <rect x="6" y="14" width="1" height="1" fill="#ffffff" />
  <rect x="7" y="14" width="1" height="1" fill="#ffffff" />
  <rect x="8" y="14" width="1" height="1" fill="#ffffff" />
  <rect x="9" y="14" width="1" height="1" fill="#ffffff" />
  <rect x="4" y="15" width="1" height="1" fill="#ffffff" />
  <rect x="5" y="15" width="1" height="1" fill="#ffffff" />
  <rect x="6" y="15" width="1" height="1" fill="#ffffff" />
  <rect x="7" y="15" width="1" height="1" fill="#ffffff" />
  <rect x="8" y="15" width="1" height="1" fill="#ffffff" />
  <rect x="9" y="15" width="1" height="1" fill="#ffffff" />
  <rect x="2" y="16" width="1" height="1" fill="#ffffff" />
  <rect x="3" y="16" width="1" height="1" fill="#ffffff" />
  <rect x="4" y="16" width="1" height="1" fill="#ffffff" />
  <rect x="5" y="16" width="1" height="1" fill="#ffffff" />
  <rect x="6" y="16" width="1" height="1" fill="#ffffff" />
  <rect x="7" y="16" width="1" height="1" fill="#ffffff" />
  <rect x="8" y="16" width="1" height="1" fill="#ffffff" />
  <rect x="2" y="17" width="1" height="1" fill="#ffffff" />
  <rect x="3" y="17" width="1" height="1" fill="#ffffff" />
  <rect x="4" y="17" width="1" height="1" fill="#ffffff" />
  <rect x="5" y="17" width="1" height="1" fill="#ffffff" />
  <rect x="6" y="17" width="1" height="1" fill="#ffffff" />
  <rect x="0" y="18" width="1" height="1" fill="#ffffff" />
  <rect x="1" y="18" width="1" height="1" fill="#ffffff" />
  <rect x="2" y="18" width="1" height="1" fill="#ffffff" />
  <rect x="3" y="18" width="1" height="1" fill="#ffffff" />
  <rect x="4" y="18" width="1" height="1" fill="#ffffff" />
  <rect x="5" y="18" width="1" height="1" fill="#ffffff" />
  <rect x="6" y="18" width="1" height="1" fill="#ffffff" />
  <rect x="0" y="19" width="1" height="1" fill="#ffffff" />
  <rect x="1" y="19" width="1" height="1" fill="#ffffff" />
  <rect x="2" y="19" width="1" height="1" fill="#ffffff" />
  <rect x="3" y="19" width="1" height="1" fill="#ffffff" />
  <rect x="4" y="19" width="1" height="1" fill="#ffffff" />
  <rect x="0" y="20" width="1" height="1" fill="#ffffff" />
  <rect x="1" y="20" width="1" height="1" fill="#ffffff" />
  <rect x="2" y="20" width="1" height="1" fill="#ffffff" />
  <rect x="3" y="20" width="1" height="1" fill="#ffffff" />
  <rect x="4" y="20" width="1" height="1" fill="#ffffff" />
  <rect x="11" y="21" width="1" height="1" fill="#ffffff" />
  <rect x="12" y="21" width="1" height="1" fill="#ffffff" />
  <rect x="13" y="21" width="1" height="1" fill="#ffffff" />
  <rect x="14" y="21" width="1" height="1" fill="#ffffff" />
  <rect x="15" y="21" width="1" height="1" fill="#ffffff" />
  <rect x="16" y="21" width="1" height="1" fill="#ffffff" />
  <rect x="17" y="21" width="1" height="1" fill="#ffffff" />
  <rect x="18" y="21" width="1" height="1" fill="#ffffff" />
  <rect x="19" y="21" width="1" height="1" fill="#ffffff" />
  <rect x="20" y="21" width="1" height="1" fill="#ffffff" />
  <rect x="21" y="21" width="1" height="1" fill="#ffffff" />
  <rect x="22" y="21" width="1" height="1" fill="#ffffff" />
  <rect x="23" y="21" width="1" height="1" fill="#ffffff" />
  <rect x="24" y="21" width="1" height="1" fill="#ffffff" />
  <rect x="25" y="21" width="1" height="1" fill="#ffffff" />
  <rect x="26" y="21" width="1" height="1" fill="#ffffff" />
  <rect x="27" y="21" width="1" height="1" fill="#ffffff" />
  <rect x="28" y="21" width="1" height="1" fill="#ffffff" />
  <rect x="29" y="21" width="1" height="1" fill="#ffffff" />
  <rect x="30" y="21" width="1" height="1" fill="#ffffff" />
  <rect x="31" y="21" width="1" height="1" fill="#ffffff" />
  <rect x="11" y="22" width="1" height="1" fill="#ffffff" />
  <rect x="12" y="22" width="1" height="1" fill="#ffffff" />
  <rect x="13" y="22" width="1" height="1" fill="#ffffff" />
  <rect x="14" y="22" width="1" height="1" fill="#ffffff" />
  <rect x="15" y="22" width="1" height="1" fill="#ffffff" />
  <rect x="16" y="22" width="1" height="1" fill="#ffffff" />
  <rect x="17" y="22" width="1" height="1" fill="#ffffff" />
  <rect x="18" y="22" width="1" height="1" fill="#ffffff" />
  <rect x="19" y="22" width="1" height="1" fill="#ffffff" />
  <rect x="20" y="22" width="1" height="1" fill="#ffffff" />
  <rect x="21" y="22" width="1" height="1" fill="#ffffff" />
  <rect x="22" y="22" width="1" height="1" fill="#ffffff" />
  <rect x="23" y="22" width="1" height="1" fill="#ffffff" />
  <rect x="24" y="22" width="1" height="1" fill="#ffffff" />
  <rect x="25" y="22" width="1" height="1" fill="#ffffff" />
  <rect x="26" y="22" width="1" height="1" fill="#ffffff" />
  <rect x="27" y="22" width="1" height="1" fill="#ffffff" />
  <rect x="28" y="22" width="1" height="1" fill="#ffffff" />
  <rect x="29" y="22" width="1" height="1" fill="#ffffff" />
  <rect x="30" y="22" width="1" height="1" fill="#ffffff" />
  <rect x="31" y="22" width="1" height="1" fill="#ffffff" />
  <rect x="12" y="23" width="1" height="1" fill="#ffffff" />
  <rect x="13" y="23" width="1" height="1" fill="#ffffff" />
  <rect x="14" y="23" width="1" height="1" fill="#ffffff" />
  <rect x="15" y="23" width="1" height="1" fill="#ffffff" />
  <rect x="16" y="23" width="1" height="1" fill="#ffffff" />
  <rect x="17" y="23" width="1" height="1" fill="#ffffff" />
  <rect x="18" y="23" width="1" height="1" fill="#ffffff" />
  <rect x="19" y="23" width="1" height="1" fill="#ffffff" />
  <rect x="20" y="23" width="1" height="1" fill="#ffffff" />
  <rect x="21" y="23" width="1" height="1" fill="#ffffff" />
  <rect x="22" y="23" width="1" height="1" fill="#ffffff" />
  <rect x="23" y="23" width="1" height="1" fill="#ffffff" />
  <rect x="24" y="23" width="1" height="1" fill="#ffffff" />
  <rect x="25" y="23" width="1" height="1" fill="#ffffff" />
  <rect x="26" y="23" width="1" height="1" fill="#ffffff" />
  <rect x="27" y="23" width="1" height="1" fill="#ffffff" />
  <rect x="28" y="23" width="1" height="1" fill="#ffffff" />
</svg>