<svg xmlns="http://www.w3.org/2000/svg" viewBox="0 0 37 37" width="37" height="37" shape-rendering="crispEdges">
  <rect x="14" y="0" width="1" height="1" fill="#ffffff" />
  <rect x="15" y="0" width="1" height="1" fill="#ffffff" />
  <rect x="16" y="0" width="1" height="1" fill="#ffffff" />
  <rect x="17" y="0" width="1" height="1" fill="#ffffff" />
  <rect x="18" y="0" width="1" height="1" fill="#ffffff" />
  <rect x="19" y="0" width="1" height="1" fill="#ffffff" />
  <rect x="20" y="0" width="1" height="1" fill="#ffffff" />
  <rect x="21" y="0" width="1" height="1" fill="#ffffff" />
  <rect x="22" y="0" width="1" height="1" fill="#ffffff" />
  <rect x="12" y="1" width="1" height="1" fill="#ffffff" />
  <rect x="13" y="1" width="1" height="1" fill="#ffffff" />
  <rect x="14" y="1" width="1" height="1" fill="#ffffff" />
  <rect x="15" y="1" width="1" height="1" fill="#ffffff" />
  <rect x="16" y="1" width="1" height="1" fill="#ffffff" />
  <rect x="17" y="1" width="1" height="1" fill="#ffffff" />
  <rect x="18" y="1" width="1" height="1" fill="#ffffff" />
  <rect x="19" y="1" width="1" height="1" fill="#ffffff" />
  <rect x="20" y="1" width="1" height="1" fill="#ffffff" />
  <rect x="21" y="1" width="1" height="1" fill="#ffffff" />
  <rect x="22" y="1" width="1" height="1" fill="#ffffff" />
  <rect x="23" y="1" width="1" height="1" fill="#ffffff" />
  <rect x="24" y="1" width="1" height="1" fill="#ffffff" />
  <rect x="12" y="2" width="1" height="1" fill="#ffffff" />
  <rect x="13" y="2" width="1" height="1" fill="#ffffff" />
  <rect x="14" y="2" width="1" height="1" fill="#ffffff" />
  <rect x="15" y="2" width="1" height="1" fill="#ffffff" />
  <rect x="16" y="2" width="1" height="1" fill="#ffffff" />
  <rect x="17" y="2" width="1" height="1" fill="#ffffff" />
  <rect x="18" y="2" width="1" height="1" fill="#ffffff" />
  <rect x="19" y="2" width="1" height="1" fill="#ffffff" />
  <rect x="20" y="2" width="1" height="1" fill="#ffffff" />
  <rect x="21" y="2" width="1" height="1" fill="#ffffff" />
  <rect x="22" y="2" width="1" height="1" fill="#ffffff" />
  <rect x="23" y="2" width="1" height="1" fill="#ffffff" />
  <rect x="24" y="2" width="1" height="1" fill="#ffffff" />
  <rect x="7" y="3" width="1" height="1" fill="#ffffff" />
  <rect x="8" y="3" width="1" height="1" fill="#ffffff" />
  <rect x="9" y="3" width="1" height="1" fill="#ffffff" />
  <rect x="10" y="3" width="1" height="1" fill="#ffffff" />
  <rect x="11" y="3" width="1" height="1" fill="#ffffff" />
  <rect x="12" y="3" width="1" height="1" fill="#ffffff" />
  <rect x="13" y="3" width="1" height="1" fill="#ffffff" />
  <rect x="23" y="3" width="1" height="1" fill="#ffffff" />
  <rect x="24" y="3" width="1" height="1" fill="#ffffff" />
  <rect x="25" y="3" width="1" height="1" fill="#ffffff" />
  <rect x="26" y="3" width="1" height="1" fill="#ffffff" />
  <rect x="27" y="3" width="1" height="1" fill="#ffffff" />
  <rect x="28" y="3" width="1" height="1" fill="#ffffff" />
  <rect x="7" y="4" width="1" height="1" fill="#ffffff" />
  <rect x="8" y="4" width="1" height="1" fill="#ffffff" />
  <rect x="9" y="4" width="1" height="1" fill="#ffffff" />
  <rect x="10" y="4" width="1" height="1" fill="#ffffff" />
  <rect x="11" y="4" width="1" height="1" fill="#ffffff" />
  <rect x="12" y="4" width="1" height="1" fill="#ffffff" />
  <rect x="13" y="4" width="1" height="1" fill="#ffffff" />
  <rect x="23" y="4" width="1" height="1" fill="#ffffff" />
  <rect x="24" y="4" width="1" height="1" fill="#ffffff" />
  <rect x="25" y="4" width="1" height="1" fill="#ffffff" />
  <rect x="26" y="4" width="1" height="1" fill="#ffffff" />
  <rect x="27" y="4" width="1" height="1" fill="#ffffff" />
  <rect x="28" y="4" width="1" height="1" fill="#ffffff" />
  <rect x="29" y="4" width="1" height="1" fill="#ffffff" />
  <rect x="5" y="5" width="1" height="1" fill="#ffffff" />
  <rect x="6" y="5" width="1" height="1" fill="#ffffff" />
  <rect x="7" y="5" width="1" height="1" fill="#ffffff" />
  <rect x="8" y="5" width="1" height="1" fill="#ffffff" />
  <rect x="9" y="5" width="1" height="1" fill="#ffffff" />
  <rect x="10" y="5" width="1" height="1" fill="#ffffff" />
  <rect x="11" y="5" width="1" height="1" fill="#ffffff" />
  <rect x="12" y="5" width="1" height="1" fill="#ffffff" />
  <rect x="13" y="5" width="1" height="1" fill="#ffffff" />
  <rect x="23" y="5" width="1" height="1" fill="#ffffff" />
  <rect x="24" y="5" width="1" height="1" fill="#ffffff" />
  <rect x="25" y="5" width="1" height="1" fill="#ffffff" />
  <rect x="26" y="5" width="1" height="1" fill="#ffffff" />
  <rect x="27" y="5" width="1" height="1" fill="#ffffff" />
  <rect x="28" y="5" width="1" height="1" fill="#ffffff" />
  <rect x="29" y="5" width="1" height="1" fill="#ffffff" />
  <rect x="30" y="5" width="1" height="1" fill="#ffffff" />
  <rect x="31" y="5" width="1" height="1" fill="#ffffff" />
  <rect x="4" y="6" width="1" height="1" fill="#ffffff" />
  <rect x="5" y="6" width="1" height="1" fill="#ffffff" />
  <rect x="6" y="6" width="1" height="1" fill="#ffffff" />
  <rect x="7" y="6" width="1" height="1" fill="#ffffff" />
  <rect x="8" y="6" width="1" height="1" fill="#ffffff" />
  <rect x="27" y="6" width="1" height="1" fill="#ffffff" />
  <rect x="28" y="6" width="1" height="1" fill="#ffffff" />
  <rect x="29" y="6" width="1" height="1" fill="#ffffff" />
  <rect x="30" y="6" width="1" height="1" fill="#ffffff" />
  <rect x="31" y="6" width="1" height="1" fill="#ffffff" />
  <rect x="4" y="7" width="1" height="1" fill="#ffffff" />
  <rect x="5" y="7" width="1" height="1" fill="#ffffff" />
  <rect x="6" y="7" width="1" height="1" fill="#ffffff" />
  <rect x="7" y="7" width="1" height="1" fill="#ffffff" />
  <rect x="8" y="7" width="1" height="1" fill="#ffffff" />
  <rect x="17" y="7" width="1" height="1" fill="#ffffff" />
  <rect x="18" y="7" width="1" height="1" fill="#ffffff" />
  <rect x="19" y="7" width="1" height="1" fill="#ffffff" />
  <rect x="27" y="7" width="1" height="1" fill="#ffffff" />
  <rect x="28" y="7" width="1" height="1" fill="#ffffff" />
  <rect x="29" y="7" width="1" height="1" fill="#ffffff" />
  <rect x="30" y="7" width="1" height="1" fill="#ffffff" />
  <rect x="31" y="7" width="1" height="1" fill="#ffffff" />
  <rect x="4" y="8" width="1" height="1" fill="#ffffff" />
  <rect x="5" y="8" width="1" height="1" fill="#ffffff" />
  <rect x="6" y="8" width="1" height="1" fill="#ffffff" />
  <rect x="7" y="8" width="1" height="1" fill="#ffffff" />
  <rect x="16" y="8" width="1" height="1" fill="#ffffff" />
  <rect x="17" y="8" width="1" height="1" fill="#ffffff" />
  <rect x="18" y="8" width="1" height="1" fill="#ffffff" />
  <rect x="19" y="8" width="1" height="1" fill="#ffffff" />
  <rect x="20" y="8" width="1" height="1" fill="#ffffff" />
  <rect x="29" y="8" width="1" height="1" fill="#ffffff" />
  <rect x="30" y="8" width="1" height="1" fill="#ffffff" />
  <rect x="31" y="8" width="1" height="1" fill="#ffffff" />
  <rect x="3" y="9" width="1" height="1" fill="#ffffff" />
  <rect x="4" y="9" width="1" height="1" fill="#ffffff" />
  <rect x="5" y="9" width="1" height="1" fill="#ffffff" />
  <rect x="6" y="9" width="1" height="1" fill="#ffffff" />
  <rect x="14" y="9" width="1" height="1" fill="#ffffff" />
  <rect x="15" y="9" width="1" height="1" fill="#ffffff" />
  <rect x="16" y="9" width="1" height="1" fill="#ffffff" />
  <rect x="17" y="9" width="1" height="1" fill="#ffffff" />
  <rect x="18" y="9" width="1" height="1" fill="#ffffff" />
  <rect x="19" y="9" width="1" height="1" fill="#ffffff" />
  <rect x="20" y="9" width="1" height="1" fill="#ffffff" />
  <rect x="21" y="9" width="1" height="1" fill="#ffffff" />
  <rect x="22" y="9" width="1" height="1" fill="#ffffff" />
  <rect x="29" y="9" width="1" height="1" fill="#ffffff" />
  <rect x="30" y="9" width="1" height="1" fill="#ffffff" />
  <rect x="31" y="9" width="1" height="1" fill="#ffffff" />
  <rect x="32" y="9" width="1" height="1" fill="#ffffff" />
  <rect x="33" y="9" width="1" height="1" fill="#ffffff" />
  <rect x="2" y="10" width="1" height="1" fill="#ffffff" />
  <rect x="3" y="10" width="1" height="1" fill="#ffffff" />
  <rect x="4" y="10" width="1" height="1" fill="#ffffff" />
  <rect x="14" y="10" width="1" height="1" fill="#ffffff" />
  <rect x="15" y="10" width="1" height="1" fill="#ffffff" />
  <rect x="16" y="10" width="1" height="1" fill="#ffffff" />
  <rect x="17" y="10" width="1" height="1" fill="#ffffff" />
  <rect x="18" y="10" width="1" height="1" fill="#ffffff" />
  <rect x="19" y="10" width="1" height="1" fill="#ffffff" />
  <rect x="20" y="10" width="1" height="1" fill="#ffffff" />
  <rect x="21" y="10" width="1" height="1" fill="#ffffff" />
  <rect x="22" y="10" width="1" height="1" fill="#ffffff" />
  <rect x="32" y="10" width="1" height="1" fill="#ffffff" />
  <rect x="33" y="10" width="1" height="1" fill="#ffffff" />
  <rect x="2" y="11" width="1" height="1" fill="#ffffff" />
  <rect x="3" y="11" width="1" height="1" fill="#ffffff" />
  <rect x="4" y="11" width="1" height="1" fill="#ffffff" />
  <rect x="13" y="11" width="1" height="1" fill="#ffffff" />
  <rect x="14" y="11" width="1" height="1" fill="#ffffff" />
  <rect x="15" y="11" width="1" height="1" fill="#ffffff" />
  <rect x="16" y="11" width="1" height="1" fill="#ffffff" />
  <rect x="17" y="11" width="1" height="1" fill="#ffffff" />
  <rect x="18" y="11" width="1" height="1" fill="#ffffff" />
  <rect x="19" y="11" width="1" height="1" fill="#ffffff" />
  <rect x="20" y="11" width="1" height="1" fill="#ffffff" />
  <rect x="21" y="11" width="1" height="1" fill="#ffffff" />
  <rect x="22" y="11" width="1" height="1" fill="#ffffff" />
  <rect x="32" y="11" width="1" height="1" fill="#ffffff" />
  <rect x="33" y="11" width="1" height="1" fill="#ffffff" />
  <rect x="0" y="12" width="1" height="1" fill="#ffffff" />
  <rect x="1" y="12" width="1" height="1" fill="#ffffff" />
  <rect x="2" y="12" width="1" height="1" fill="#ffffff" />
  <rect x="3" y="12" width="1" height="1" fill="#ffffff" />
  <rect x="4" y="12" width="1" height="1" fill="#ffffff" />
  <rect x="13" y="12" width="1" height="1" fill="#ffffff" />
  <rect x="14" y="12" width="1" height="1" fill="#ffffff" />
  <rect x="15" y="12" width="1" height="1" fill="#ffffff" />
  <rect x="16" y="12" width="1" height="1" fill="#ffffff" />
  <rect x="20" y="12" width="1" height="1" fill="#ffffff" />
  <rect x="21" y="12" width="1" height="1" fill="#ffffff" />
  <rect x="22" y="12" width="1" height="1" fill="#ffffff" />
  <rect x="32" y="12" width="1" height="1" fill="#ffffff" />
  <rect x="33" y="12" width="1" height="1" fill="#ffffff" />
  <rect x="34" y="12" width="1" height="1" fill="#ffffff" />
  <rect x="35" y="12" width="1" height="1" fill="#ffffff" />
  <rect x="36" y="12" width="1" height="1" fill="#ffffff" />
  <rect x="0" y="13" width="1" height="1" fill="#ffffff" />
  <rect x="1" y="13" width="1" height="1" fill="#ffffff" />
  <rect x="2" y="13" width="1" height="1" fill="#ffffff" />
  <rect x="3" y="13" width="1" height="1" fill="#ffffff" />
  <rect x="4" y="13" width="1" height="1" fill="#ffffff" />
  <rect x="13" y="13" width="1" height="1" fill="#ffffff" />
  <rect x="14" y="13" width="1" height="1" fill="#ffffff" />
  <rect x="15" y="13" width="1" height="1" fill="#ffffff" />
  <rect x="16" y="13" width="1" height="1" fill="#ffffff" />
  <rect x="20" y="13" width="1" height="1" fill="#ffffff" />
  <rect x="21" y="13" width="1" height="1" fill="#ffffff" />
  <rect x="22" y="13" width="1" height="1" fill="#ffffff" />
  <rect x="32" y="13" width="1" height="1" fill="#ffffff" />
  <rect x="33" y="13" width="1" height="1" fill="#ffffff" />
  <rect x="34" y="13" width="1" height="1" fill="#ffffff" />
  <rect x="35" y="13" width="1" height="1" fill="#ffffff" />
  <rect x="36" y="13" width="1" height="1" fill="#ffffff" />
  <rect x="0" y="14" width="1" height="1" fill="#ffffff" />
  <rect x="1" y="14" width="1" height="1" fill="#ffffff" />
  <rect x="2" y="14" width="1" height="1" fill="#ffffff" />
  <rect x="3" y="14" width="1" height="1" fill="#ffffff" />
  <rect x="9" y="14" width="1" height="1" fill="#ffffff" />
  <rect x="10" y="14" width="1" height="1" fill="#ffffff" />
  <rect x="11" y="14" width="1" height="1" fill="#ffffff" />
  <rect x="12" y="14" width="1" height="1" fill="#ffffff" />
  <rect x="13" y="14" width="1" height="1" fill="#ffffff" />
  <rect x="14" y="14" width="1" height="1" fill="#ffffff" />
  <rect x="15" y="14" width="1" height="1" fill="#ffffff" />
  <rect x="16" y="14" width="1" height="1" fill="#ffffff" />
  <rect x="20" y="14" width="1" height="1" fill="#ffffff" />
  <rect x="21" y="14" width="1" height="1" fill="#ffffff" />
  <rect x="22" y="14" width="1" height="1" fill="#ffffff" />
  <rect x="23" y="14" width="1" height="1" fill="#ffffff" />
  <rect x="24" y="14" width="1" height="1" fill="#ffffff" />
  <rect x="25" y="14" width="1" height="1" fill="#ffffff" />
  <rect x="26" y="14" width="1" height="1" fill="#ffffff" />
  <rect x="27" y="14" width="1" height="1" fill="#ffffff" />
  <rect x="32" y="14" width="1" height="1" fill="#ffffff" />
  <rect x="33" y="14" width="1" height="1" fill="#ffffff" />
  <rect x="34" y="14" width="1" height="1" fill="#ffffff" />
  <rect x="35" y="14" width="1" height="1" fill="#ffffff" />
  <rect x="36" y="14" width="1" height="1" fill="#ffffff" />
  <rect x="0" y="15" width="1" height="1" fill="#ffffff" />
  <rect x="1" y="15" width="1" height="1" fill="#ffffff" />
  <rect x="2" y="15" width="1" height="1" fill="#ffffff" />
  <rect x="9" y="15" width="1" height="1" fill="#ffffff" />
  <rect x="10" y="15" width="1" height="1" fill="#ffffff" />
  <rect x="11" y="15" width="1" height="1" fill="#ffffff" />
  <rect x="12" y="15" width="1" height="1" fill="#ffffff" />
  <rect x="13" y="15" width="1" height="1" fill="#ffffff" />
  <rect x="14" y="15" width="1" height="1" fill="#ffffff" />
  <rect x="15" y="15" width="1" height="1" fill="#ffffff" />
  <rect x="16" y="15" width="1" height="1" fill="#ffffff" />
  <rect x="20" y="15" width="1" height="1" fill="#ffffff" />
  <rect x="21" y="15" width="1" height="1" fill="#ffffff" />
  <rect x="22" y="15" width="1" height="1" fill="#ffffff" />
  <rect x="23" y="15" width="1" height="1" fill="#ffffff" />
  <rect x="24" y="15" width="1" height="1" fill="#ffffff" />
  <rect x="25" y="15" width="1" height="1" fill="#ffffff" />
  <rect x="26" y="15" width="1" height="1" fill="#ffffff" />
  <rect x="27" y="15" width="1" height="1" fill="#ffffff" />
  <rect x="34" y="15" width="1" height="1" fill="#ffffff" />
  <rect x="35" y="15" width="1" height="1" fill="#ffffff" />
  <rect x="36" y="15" width="1" height="1" fill="#ffffff" />
  <rect x="0" y="16" width="1" height="1" fill="#ffffff" />
  <rect x="1" y="16" width="1" height="1" fill="#ffffff" />
  <rect x="2" y="16" width="1" height="1" fill="#ffffff" />
  <rect x="9" y="16" width="1" height="1" fill="#ffffff" />
  <rect x="10" y="16" width="1" height="1" fill="#ffffff" />
  <rect x="11" y="16" width="1" height="1" fill="#ffffff" />
  <rect x="12" y="16" width="1" height="1" fill="#ffffff" />
  <rect x="13" y="16" width="1" height="1" fill="#ffffff" />
  <rect x="14" y="16" width="1" height="1" fill="#ffffff" />
  <rect x="15" y="16" width="1" height="1" fill="#ffffff" />
  <rect x="16" y="16" width="1" height="1" fill="#ffffff" />
  <rect x="20" y="16" width="1" height="1" fill="#ffffff" />
  <rect x="21" y="16" width="1" height="1" fill="#ffffff" />
  <rect x="22" y="16" width="1" height="1" fill="#ffffff" />
  <rect x="23" y="16" width="1" height="1" fill="#ffffff" />
  <rect x="24" y="16" width="1" height="1" fill="#ffffff" />
  <rect x="25" y="16" width="1" height="1" fill="#ffffff" />
  <rect x="26" y="16" width="1" height="1" fill="#ffffff" />
  <rect x="27" y="16" width="1" height="1" fill="#ffffff" />
  <rect x="34" y="16" width="1" height="1" fill="#ffffff" />
  <rect x="35" y="16" width="1" height="1" fill="#ffffff" />
  <rect x="36" y="16" width="1" height="1" fill="#ffffff" />
  <rect x="0" y="17" width="1" height="1" fill="#ffffff" />
  <rect x="1" y="17" width="1" height="1" fill="#ffffff" />
  <rect x="2" y="17" width="1" height="1" fill="#ffffff" />
  <rect x="7" y="17" width="1" height="1" fill="#ffffff" />
  <rect x="8" y="17" width="1" height="1" fill="#ffffff" />
  <rect x="9" y="17" width="1" height="1" fill="#ffffff" />
  <rect x="10" y="17" width="1" height="1" fill="#ffffff" />
  <rect x="11" y="17" width="1" height="1" fill="#ffffff" />
  <rect x="25" y="17" width="1" height="1" fill="#ffffff" />
  <rect x="26" y="17" width="1" height="1" fill="#ffffff" />
  <rect x="27" y="17" width="1" height="1" fill="#ffffff" />
  <rect x="28" y="17" width="1" height="1" fill="#ffffff" />
  <rect x="29" y="17" width="1" height="1" fill="#ffffff" />
  <rect x="34" y="17" width="1" height="1" fill="#ffffff" />
  <rect x="35" y="17" width="1" height="1" fill="#ffffff" />
  <rect x="36" y="17" width="1" height="1" fill="#ffffff" />
  <rect x="0" y="18" width="1" height="1" fill="#ffffff" />
  <rect x="1" y="18" width="1" height="1" fill="#ffffff" />
  <rect x="2" y="18" width="1" height="1" fill="#ffffff" />
  <rect x="7" y="18" width="1" height="1" fill="#ffffff" />
  <rect x="8" y="18" width="1" height="1" fill="#ffffff" />
  <rect x="9" y="18" width="1" height="1" fill="#ffffff" />
  <rect x="10" y="18" width="1" height="1" fill="#ffffff" />
  <rect x="11" y="18" width="1" height="1" fill="#ffffff" />
  <rect x="25" y="18" width="1" height="1" fill="#ffffff" />
  <rect x="26" y="18" width="1" height="1" fill="#ffffff" />
  <rect x="27" y="18" width="1" height="1" fill="#ffffff" />
  <rect x="28" y="18" width="1" height="1" fill="#ffffff" />
  <rect x="29" y="18" width="1" height="1" fill="#ffffff" />
  <rect x="34" y="18" width="1" height="1" fill="#ffffff" />
  <rect x="35" y="18" width="1" height="1" fill="#ffffff" />
  <rect x="36" y="18" width="1" height="1" fill="#ffffff" />
  <rect x="0" y="19" width="1" height="1" fill="#ffffff" />
  <rect x="1" y="19" width="1" height="1" fill="#ffffff" />
  <rect x="2" y="19" width="1" height="1" fill="#ffffff" />
  <rect x="7" y="19" width="1" height="1" fill="#ffffff" />
  <rect x="8" y="19" width="1" height="1" fill="#ffffff" />
  <rect x="9" y="19" width="1" height="1" fill="#ffffff" />
  <rect x="10" y="19" width="1" height="1" fill="#ffffff" />
  <rect x="11" y="19" width="1" height="1" fill="#ffffff" />
  <rect x="25" y="19" width="1" height="1" fill="#ffffff" />
  <rect x="26" y="19" width="1" height="1" fill="#ffffff" />
  <rect x="27" y="19" width="1" height="1" fill="#ffffff" />
  <rect x="28" y="19" width="1" height="1" fill="#ffffff" />
  <rect x="29" y="19" width="1" height="1" fill="#ffffff" />
  <rect x="34" y="19" width="1" height="1" fill="#ffffff" />
  <rect x="35" y="19" width="1" height="1" fill="#ffffff" />
  <rect x="36" y="19" width="1" height="1" fill="#ffffff" />
  <rect x="0" y="20" width="1" height="1" fill="#ffffff" />
  <rect x="1" y="20" width="1" height="1" fill="#ffffff" />
  <rect x="2" y="20" width="1" height="1" fill="#ffffff" />
  <rect x="7" y="20" width="1" height="1" fill="#ffffff" />
  <rect x="8" y="20" width="1" height="1" fill="#ffffff" />
  <rect x="9" y="20" width="1" height="1" fill="#ffffff" />
  <rect x="10" y="20" width="1" height="1" fill="#ffffff" />
  <rect x="11" y="20" width="1" height="1" fill="#ffffff" />
  <rect x="24" y="20" width="1" height="1" fill="#ffffff" />
  <rect x="25" y="20" width="1" height="1" fill="#ffffff" />
  <rect x="26" y="20" width="1" height="1" fill="#ffffff" />
  <rect x="27" y="20" width="1" height="1" fill="#ffffff" />
  <rect x="28" y="20" width="1" height="1" fill="#ffffff" />
  <rect x="29" y="20" width="1" height="1" fill="#ffffff" />
  <rect x="34" y="20" width="1" height="1" fill="#ffffff" />
  <rect x="35" y="20" width="1" height="1" fill="#ffffff" />
  <rect x="36" y="20" width="1" height="1" fill="#ffffff" />
  <rect x="0" y="21" width="1" height="1" fill="#ffffff" />
  <rect x="1" y="21" width="1" height="1" fill="#ffffff" />
  <rect x="2" y="21" width="1" height="1" fill="#ffffff" />
  <rect x="9" y="21" width="1" height="1" fill="#ffffff" />
  <rect x="10" y="21" width="1" height="1" fill="#ffffff" />
  <rect x="11" y="21" width="1" height="1" fill="#ffffff" />
  <rect x="12" y="21" width="1" height="1" fill="#ffffff" />
  <rect x="13" y="21" width="1" height="1" fill="#ffffff" />
  <rect x="14" y="21" width="1" height="1" fill="#ffffff" />
  <rect x="15" y="21" width="1" height="1" fill="#ffffff" />
  <rect x="16" y="21" width="1" height="1" fill="#ffffff" />
  <rect x="20" y="21" width="1" height="1" fill="#ffffff" />
  <rect x="21" y="21" width="1" height="1" fill="#ffffff" />
  <rect x="22" y="21" width="1" height="1" fill="#ffffff" />
  <rect x="23" y="21" width="1" height="1" fill="#ffffff" />
  <rect x="24" y="21" width="1" height="1" fill="#ffffff" />
  <rect x="25" y="21" width="1" height="1" fill="#ffffff" />
  <rect x="26" y="21" width="1" height="1" fill="#ffffff" />
  <rect x="27" y="21" width="1" height="1" fill="#ffffff" />
  <rect x="34" y="21" width="1" height="1" fill="#ffffff" />
  <rect x="35" y="21" width="1" height="1" fill="#ffffff" />
  <rect x="36" y="21" width="1" height="1" fill="#ffffff" />
  <rect x="0" y="22" width="1" height="1" fill="#ffffff" />
  <rect x="1" y="22" width="1" height="1" fill="#ffffff" />
  <rect x="2" y="22" width="1" height="1" fill="#ffffff" />
  <rect x="9" y="22" width="1" height="1" fill="#ffffff" />
  <rect x="10" y="22" width="1" height="1" fill="#ffffff" />
  <rect x="11" y="22" width="1" height="1" fill="#ffffff" />
  <rect x="12" y="22" width="1" height="1" fill="#ffffff" />
  <rect x="13" y="22" width="1" height="1" fill="#ffffff" />
  <rect x="14" y="22" width="1" height="1" fill="#ffffff" />
  <rect x="15" y="22" width="1" height="1" fill="#ffffff" />
  <rect x="16" y="22" width="1" height="1" fill="#ffffff" />
  <rect x="20" y="22" width="1" height="1" fill="#ffffff" />
  <rect x="21" y="22" width="1" height="1" fill="#ffffff" />
  <rect x="22" y="22" width="1" height="1" fill="#ffffff" />
  <rect x="23" y="22" width="1" height="1" fill="#ffffff" />
  <rect x="24" y="22" width="1" height="1" fill="#ffffff" />
  <rect x="25" y="22" width="1" height="1" fill="#ffffff" />
  <rect x="26" y="22" width="1" height="1" fill="#ffffff" />
  <rect x="27" y="22" width="1" height="1" fill="#ffffff" />
  <rect x="34" y="22" width="1" height="1" fill="#ffffff" />
  <rect x="35" y="22" width="1" height="1" fill="#ffffff" />
  <rect x="36" y="22" width="1" height="1" fill="#ffffff" />
  <rect x="0" y="23" width="1" height="1" fill="#ffffff" />
  <rect x="1" y="23" width="1" height="1" fill="#ffffff" />
  <rect x="2" y="23" width="1" height="1" fill="#ffffff" />
  <rect x="3" y="23" width="1" height="1" fill="#ffffff" />
  <rect x="4" y="23" width="1" height="1" fill="#ffffff" />
  <rect x="9" y="23" width="1" height="1" fill="#ffffff" />
  <rect x="10" y="23" width="1" height="1" fill="#ffffff" />
  <rect x="11" y="23" width="1" height="1" fill="#ffffff" />
  <rect x="12" y="23" width="1" height="1" fill="#ffffff" />
  <rect x="13" y="23" width="1" height="1" fill="#ffffff" />
  <rect x="14" y="23" width="1" height="1" fill="#ffffff" />
  <rect x="15" y="23" width="1" height="1" fill="#ffffff" />
  <rect x="16" y="23" width="1" height="1" fill="#ffffff" />
  <rect x="20" y="23" width="1" height="1" fill="#ffffff" />
  <rect x="21" y="23" width="1" height="1" fill="#ffffff" />
  <rect x="22" y="23" width="1" height="1" fill="#ffffff" />
  <rect x="23" y="23" width="1" height="1" fill="#ffffff" />
  <rect x="24" y="23" width="1" height="1" fill="#ffffff" />
  <rect x="25" y="23" width="1" height="1" fill="#ffffff" />
  <rect x="26" y="23" width="1" height="1" fill="#ffffff" />
  <rect x="32" y="23" width="1" height="1" fill="#ffffff" />
  <rect x="33" y="23" width="1" height="1" fill="#ffffff" />
  <rect x="34" y="23" width="1" height="1" fill="#ffffff" />
  <rect x="35" y="23" width="1" height="1" fill="#ffffff" />
  <rect x="36" y="23" width="1" height="1" fill="#ffffff" />
  <rect x="0" y="24" width="1" height="1" fill="#ffffff" />
  <rect x="1" y="24" width="1" height="1" fill="#ffffff" />
  <rect x="2" y="24" width="1" height="1" fill="#ffffff" />
  <rect x="3" y="24" width="1" height="1" fill="#ffffff" />
  <rect x="4" y="24" width="1" height="1" fill="#ffffff" />
  <rect x="13" y="24" width="1" height="1" fill="#ffffff" />
  <rect x="14" y="24" width="1" height="1" fill="#ffffff" />
  <rect x="15" y="24" width="1" height="1" fill="#ffffff" />
  <rect x="16" y="24" width="1" height="1" fill="#ffffff" />
  <rect x="20" y="24" width="1" height="1" fill="#ffffff" />
  <rect x="21" y="24" width="1" height="1" fill="#ffffff" />
  <rect x="22" y="24" width="1" height="1" fill="#ffffff" />
  <rect x="32" y="24" width="1" height="1" fill="#ffffff" />
  <rect x="33" y="24" width="1" height="1" fill="#ffffff" />
  <rect x="34" y="24" width="1" height="1" fill="#ffffff" />
  <rect x="35" y="24" width="1" height="1" fill="#ffffff" />
  <rect x="36" y="24" width="1" height="1" fill="#ffffff" />
  <rect x="0" y="25" width="1" height="1" fill="#ffffff" />
  <rect x="1" y="25" width="1" height="1" fill="#ffffff" />
  <rect x="2" y="25" width="1" height="1" fill="#ffffff" />
  <rect x="3" y="25" width="1" height="1" fill="#ffffff" />
  <rect x="4" y="25" width="1" height="1" fill="#ffffff" />
  <rect x="13" y="25" width="1" height="1" fill="#ffffff" />
  <rect x="14" y="25" width="1" height="1" fill="#ffffff" />
  <rect x="15" y="25" width="1" height="1" fill="#ffffff" />
  <rect x="16" y="25" width="1" height="1" fill="#ffffff" />
  <rect x="20" y="25" width="1" height="1" fill="#ffffff" />
  <rect x="21" y="25" width="1" height="1" fill="#ffffff" />
  <rect x="22" y="25" width="1" height="1" fill="#ffffff" />
  <rect x="32" y="25" width="1" height="1" fill="#ffffff" />
  <rect x="33" y="25" width="1" height="1" fill="#ffffff" />
  <rect x="34" y="25" width="1" height="1" fill="#ffffff" />
  <rect x="35" y="25" width="1" height="1" fill="#ffffff" />
  <rect x="36" y="25" width="1" height="1" fill="#ffffff" />
  <rect x="2" y="26" width="1" height="1" fill="#ffffff" />
  <rect x="3" y="26" width="1" height="1" fill="#ffffff" />
  <rect x="4" y="26" width="1" height="1" fill="#ffffff" />
  <rect x="13" y="26" width="1" height="1" fill="#ffffff" />
  <rect x="14" y="26" width="1" height="1" fill="#ffffff" />
  <rect x="15" y="26" width="1" height="1" fill="#ffffff" />
  <rect x="16" y="26" width="1" height="1" fill="#ffffff" />
  <rect x="20" y="26" width="1" height="1" fill="#ffffff" />
  <rect x="21" y="26" width="1" height="1" fill="#ffffff" />
  <rect x="22" y="26" width="1" height="1" fill="#ffffff" />
  <rect x="32" y="26" width="1" height="1" fill="#ffffff" />
  <rect x="33" y="26" width="1" height="1" fill="#ffffff" />
  <rect x="2" y="27" width="1" height="1" fill="#ffffff" />
  <rect x="3" y="27" width="1" height="1" fill="#ffffff" />
  <rect x="4" y="27" width="1" height="1" fill="#ffffff" />
  <rect x="14" y="27" width="1" height="1" fill="#ffffff" />
  <rect x="15" y="27" width="1" height="1" fill="#ffffff" />
  <rect x="16" y="27" width="1" height="1" fill="#ffffff" />
  <rect x="20" y="27" width="1" height="1" fill="#ffffff" />
  <rect x="21" y="27" width="1" height="1" fill="#ffffff" />
  <rect x="22" y="27" width="1" height="1" fill="#ffffff" />
  <rect x="32" y="27" width="1" height="1" fill="#ffffff" />
  <rect x="33" y="27" width="1" height="1" fill="#ffffff" />
  <rect x="4" y="28" width="1" height="1" fill="#ffffff" />
  <rect x="5" y="28" width="1" height="1" fill="#ffffff" />
  <rect x="6" y="28" width="1" height="1" fill="#ffffff" />
  <rect x="7" y="28" width="1" height="1" fill="#ffffff" />
  <rect x="16" y="28" width="1" height="1" fill="#ffffff" />
  <rect x="17" y="28" width="1" height="1" fill="#ffffff" />
  <rect x="18" y="28" width="1" height="1" fill="#ffffff" />
  <rect x="19" y="28" width="1" height="1" fill="#ffffff" />
  <rect x="20" y="28" width="1" height="1" fill="#ffffff" />
  <rect x="29" y="28" width="1" height="1" fill="#ffffff" />
  <rect x="30" y="28" width="1" height="1" fill="#ffffff" />
  <rect x="31" y="28" width="1" height="1" fill="#ffffff" />
  <rect x="4" y="29" width="1" height="1" fill="#ffffff" />
  <rect x="5" y="29" width="1" height="1" fill="#ffffff" />
  <rect x="6" y="29" width="1" height="1" fill="#ffffff" />
  <rect x="7" y="29" width="1" height="1" fill="#ffffff" />
  <rect x="16" y="29" width="1" height="1" fill="#ffffff" />
  <rect x="17" y="29" width="1" height="1" fill="#ffffff" />
  <rect x="18" y="29" width="1" height="1" fill="#ffffff" />
  <rect x="19" y="29" width="1" height="1" fill="#ffffff" />
  <rect x="20" y="29" width="1" height="1" fill="#ffffff" />
  <rect x="29" y="29" width="1" height="1" fill="#ffffff" />
  <rect x="30" y="29" width="1" height="1" fill="#ffffff" />
  <rect x="31" y="29" width="1" height="1" fill="#ffffff" />
  <rect x="4" y="30" width="1" height="1" fill="#ffffff" />
  <rect x="5" y="30" width="1" height="1" fill="#ffffff" />
  <rect x="6" y="30" width="1" height="1" fill="#ffffff" />
  <rect x="7" y="30" width="1" height="1" fill="#ffffff" />
  <rect x="8" y="30" width="1" height="1" fill="#ffffff" />
  <rect x="17" y="30" width="1" height="1" fill="#ffffff" />
  <rect x="18" y="30" width="1" height="1" fill="#ffffff" />
  <rect x="19" y="30" width="1" height="1" fill="#ffffff" />
  <rect x="27" y="30" width="1" height="1" fill="#ffffff" />
  <rect x="28" y="30" width="1" height="1" fill="#ffffff" />
  <rect x="29" y="30" width="1" height="1" fill="#ffffff" />
  <rect x="30" y="30" width="1" height="1" fill="#ffffff" />
  <rect x="31" y="30" width="1" height="1" fill="#ffffff" />
  <rect x="4" y="31" width="1" height="1" fill="#ffffff" />
  <rect x="5" y="31" width="1" height="1" fill="#ffffff" />
  <rect x="6" y="31" width="1" height="1" fill="#ffffff" />
  <rect x="7" y="31" width="1" height="1" fill="#ffffff" />
  <rect x="8" y="31" width="1" height="1" fill="#ffffff" />
  <rect x="27" y="31" width="1" height="1" fill="#ffffff" />
  <rect x="28" y="31" width="1" height="1" fill="#ffffff" />
  <rect x="29" y="31" width="1" height="1" fill="#ffffff" />
  <rect x="30" y="31" width="1" height="1" fill="#ffffff" />
  <rect x="31" y="31" width="1" height="1" fill="#ffffff" />
  <rect x="5" y="32" width="1" height="1" fill="#ffffff" />
  <rect x="6" y="32" width="1" height="1" fill="#ffffff" />
  <rect x="7" y="32" width="1" height="1" fill="#ffffff" />
  <rect x="8" y="32" width="1" height="1" fill="#ffffff" />
  <rect x="9" y="32" width="1" height="1" fill="#ffffff" />
  <rect x="10" y="32" width="1" height="1" fill="#ffffff" />
  <rect x="11" y="32" width="1" height="1" fill="#ffffff" />
  <rect x="12" y="32" width="1" height="1" fill="#ffffff" />
  <rect x="13" y="32" width="1" height="1" fill="#ffffff" />
  <rect x="23" y="32" width="1" height="1" fill="#ffffff" />
  <rect x="24" y="32" width="1" height="1" fill="#ffffff" />
  <rect x="25" y="32" width="1" height="1" fill="#ffffff" />
  <rect x="26" y="32" width="1" height="1" fill="#ffffff" />
  <rect x="27" y="32" width="1" height="1" fill="#ffffff" />
  <rect x="28" y="32" width="1" height="1" fill="#ffffff" />
  <rect x="29" y="32" width="1" height="1" fill="#ffffff" />
  <rect x="30" y="32" width="1" height="1" fill="#ffffff" />
  <rect x="31" y="32" width="1" height="1" fill="#ffffff" />
  <rect x="9" y="33" width="1" height="1" fill="#ffffff" />
  <rect x="10" y="33" width="1" height="1" fill="#ffffff" />
  <rect x="11" y="33" width="1" height="1" fill="#ffffff" />
  <rect x="12" y="33" width="1" height="1" fill="#ffffff" />
  <rect x="13" y="33" width="1" height="1" fill="#ffffff" />
  <rect x="23" y="33" width="1" height="1" fill="#ffffff" />
  <rect x="24" y="33" width="1" height="1" fill="#ffffff" />
  <rect x="25" y="33" width="1" height="1" fill="#ffffff" />
  <rect x="26" y="33" width="1" height="1" fill="#ffffff" />
  <rect x="27" y="33" width="1" height="1" fill="#ffffff" />
  <rect x="9" y="34" width="1" height="1" fill="#ffffff" />
  <rect x="10" y="34" width="1" height="1" fill="#ffffff" />
  <rect x="11" y="34" width="1" height="1" fill="#ffffff" />
  <rect x="12" y="34" width="1" height="1" fill="#ffffff" />
  <rect x="13" y="34" width="1" height="1" fill="#ffffff" />
  <rect x="14" y="34" width="1" height="1" fill="#ffffff" />
  <rect x="15" y="34" width="1" height="1" fill="#ffffff" />
  <rect x="16" y="34" width="1" height="1" fill="#ffffff" />
  <rect x="17" y="34" width="1" height="1" fill="#ffffff" />
  <rect x="18" y="34" width="1" height="1" fill="#ffffff" />
  <rect x="19" y="34" width="1" height="1" fill="#ffffff" />
  <rect x="20" y="34" width="1" height="1" fill="#ffffff" />
  <rect x="21" y="34" width="1" height="1" fill="#ffffff" />
  <rect x="22" y="34" width="1" height="1" fill="#ffffff" />
  <rect x="23" y="34" width="1" height="1" fill="#ffffff" />
  <rect x="24" y="34" width="1" height="1" fill="#ffffff" />
  <rect x="25" y="34" width="1" height="1" fill="#ffffff" />
  <rect x="26" y="34" width="1" height="1" fill="#ffffff" />
  <rect x="27" y="34" width="1" height="1" fill="#ffffff" />
  <rect x="13" y="35" width="1" height="1" fill="#ffffff" />
  <rect x="14" y="35" width="1" height="1" fill="#ffffff" />
  <rect x="15" y="35" width="1" height="1" fill="#ffffff" />
  <rect x="16" y="35" width="1" height="1" fill="#ffffff" />
  <rect x="17" y="35" width="1" height="1" fill="#ffffff" />
  <rect x="18" y="35" width="1" height="1" fill="#ffffff" />
  <rect x="19" y="35" width="1" height="1" fill="#ffffff" />
  <rect x="20" y="35" width="1" height="1" fill="#ffffff" />
  <rect x="21" y="35" width="1" height="1" fill="#ffffff" />
  <rect x="22" y="35" width="1" height="1" fill="#ffffff" />
  <rect x="14" y="36" width="1" height="1" fill="#ffffff" />
  <rect x="15" y="36" width="1" height="1" fill="#ffffff" />
  <rect x="16" y="36" width="1" height="1" fill="#ffffff" />
  <rect x="17" y="36" width="1" height="1" fill="#ffffff" />
  <rect x="18" y="36" width="1" height="1" fill="#ffffff" />
  <rect x="19" y="36" width="1" height="1" fill="#ffffff" />
  <rect x="20" y="36" width="1" height="1" fill="#ffffff" />
  <rect x="21" y="36" width="1" height="1" fill="#ffffff" />
  <rect x="22" y="36" width="1" height="1" fill="#ffffff" />
</svg>