<svg xmlns="http://www.w3.org/2000/svg" width="301" height="40" fill="none"><path fill="#FF3902" d="M20 0C9.507 0 1 8.507 1 19v1.172l3 3V19c0-8.837 7.163-16 16-16s16 7.163 16 16v4.172l3-3V19C39 8.507 30.493 0 20 0m0 10a9 9 0 0 0-9 9v12.05a.95.95 0 0 1-1.621.672L0 22.342v4.243l7.258 7.258A3.949 3.949 0 0 0 14 31.05V19a6 6 0 0 1 12 0v12.05a3.95 3.95 0 0 0 6.742 2.793l1.965-1.965 3-3L40 26.586v-4.242l-2.121 2.12-2.294 2.294-3 3-1.964 1.965A.95.95 0 0 1 29 31.05V19a9 9 0 0 0-9-9m0 5a4 4 0 0 0-4 4v12.05a5.95 5.95 0 0 1-10.157 4.208L0 29.414v4.242l3.722 3.723A8.95 8.95 0 0 0 19 31.049V19a1 1 0 1 1 2 0v12.05a8.95 8.95 0 0 0 15.278 6.329L40 33.656v-4.242l-5.843 5.844A5.95 5.95 0 0 1 24 31.05V19a4 4 0 0 0-4-4m0-10C12.268 5 6 11.268 6 19v6.172l3 3V19c0-6.075 4.925-11 11-11s11 4.925 11 11v9.172l3-3V19c0-7.732-6.268-14-14-14"/><path fill="#040056" d="M264.981 11h7.2c2.6 0 5.08.72 7.2 1.96V11h7.2c7.96 0 14.4 6.48 14.4 14.4v4.8h-4.8v-4.8c0-5.28-4.32-9.6-9.6-9.6h-2.4v1.64c1.52 2.28 2.4 5.04 2.4 7.96v4.8h-4.8v-4.8c0-5.28-4.32-9.6-9.6-9.6h-2.4v14.4h-4.8zm-3.202 19.24h-14.4c-7.96 0-14.4-6.44-14.4-14.4v-4.8h4.8v4.8c0 5.28 4.28 9.6 9.6 9.6h9.6v-14.4h4.8zm-31.528-19.2v4.8h-16.8c-2.64 0-4.8 2.16-4.8 4.8s2.16 4.8 4.8 4.8h.52c1.2 0 2.4-.4 3.32-1.16l3.88-3.12.16-.08 1.52-1.08a5.84 5.84 0 0 1 7.52.68c2.48 2.44 2.24 6.52-.48 8.72l-1 .84h-7.64l5.64-4.56c.52-.4.52-1.16.08-1.64-.36-.36-.96-.4-1.36-.12l-1.48 1.04-3.84 3.04c-1.8 1.44-4 2.24-6.32 2.24h-.52c-5.28 0-9.6-4.32-9.6-9.6 0-5.32 4.32-9.6 9.6-9.6zM174.306 11h19.2c5.28 0 9.6 4.32 9.6 9.6 0 5.32-4.32 9.6-9.6 9.6h-1.68c-2.56 0-5.08-.84-7.08-2.44l-5.64-4.56v7h-4.8zm4.8 4.84v1.24l8.64 6.92c1.16.92 2.6 1.44 4.08 1.44h1.68c2.64 0 4.8-2.16 4.8-4.8 0-2.68-2.16-4.8-4.8-4.8zm-7.191 14.36h-4.8V11h4.8zm-18.618-4.8c4 0 7.2-3.2 7.2-7.2v-2.4h-14.4c-2.64 0-4.8 2.16-4.8 4.8 0 2.68 2.16 4.8 4.8 4.8zm12-14.4v7.2c0 6.64-5.36 12-12 12h-7.2c-5.28 0-9.6-4.28-9.6-9.6 0-5.28 4.32-9.6 9.6-9.6zm-30.394 0v14.44c0 1.76-.64 3.48-1.84 4.76h-7.72l3.8-2.84c.6-.48.96-1.2.96-1.92V23.2l-5.64 4.56c-2 1.6-4.52 2.44-7.08 2.44h-1.68c-5.28 0-9.6-4.28-9.6-9.6 0-5.28 4.32-9.6 9.6-9.6zm-19.2 4.8c-2.64 0-4.8 2.16-4.8 4.8 0 2.68 2.16 4.8 4.8 4.8h1.68c1.48 0 2.92-.48 4.08-1.4l8.64-6.92V15.8zm-22.179 9.6c4 0 7.2-3.2 7.2-7.2v-2.4h-14.4c-2.64 0-4.8 2.16-4.8 4.8 0 2.68 2.16 4.8 4.8 4.8zm12-14.4v7.2c0 6.64-5.36 12-12 12h-7.2c-5.28 0-9.6-4.28-9.6-9.6 0-5.28 4.32-9.6 9.6-9.6zM56.48 11v7.64c0 .64.24 1.24.68 1.68l3 3a7.14 7.14 0 0 0 5.08 2.12h10.44v4.8H65.24c-3.16 0-6.24-1.28-8.48-3.52l-3-3c-1.32-1.36-2.08-3.2-2.08-5.08V11z"/></svg>